DataType=double
version=3
OpenSimVersion=4.4-2022-07-23-0e9fedc
endheader
time	hip_flexion_l	hip_adduction_l	hip_rotation_l	knee_angle_l	ankle_angle_l	subtalar_angle_l
7.20428571	-27.52550706	-6.16631656	3.36441572	23.87911367	-0.42571884	-0.81928405
7.216	-22.16660067	-4.25677468	3.06604607	21.44573527	-0.08515198	-0.69194338
7.22771429	-18.92939915	-3.20483508	2.83690159	19.30755787	0.49390552	-0.48439167
7.23942857	-18.60257615	-2.78113387	2.65464964	17.45842911	1.21740172	-0.09998894999999999
7.25114286	-21.0498245	-2.55138508	2.43716597	15.50249913	1.86659702	0.57459768
7.26285714	-24.74206631	-2.22080402	2.11522399	12.53457777	2.14783289	1.63823501
7.27457143	-27.87861382	-1.76083413	1.72086021	7.64556358	1.71081862	3.15400623
7.28628571	-29.76671143	-1.58448901	1.41356983	0.85098184	0.25673375	5.01565749
7.298	-30.74821921	-2.46737925	1.50649965	-7.09590302	-2.18875335	6.98569258
7.30971429	-30.81917463	-5.08311137	2.40941331	-15.47331212	-5.16823767	8.790679259999999
7.32142857	-30.20724338	-8.785829919999999	3.83715496	-23.63395534	-8.12384269	10.24647403
7.33314286	-29.12501794	-12.72080494	5.49059309	-31.30338075	-10.83327569	11.40137521
7.34485714	-27.94790532	-16.28437301	7.04788293	-38.26281477	-13.24770936	12.28833247
7.35657143	-26.78470927	-19.38133509	8.442828629999999	-44.5486119	-15.43626764	13.02285991
7.36828571	-25.72093725	-21.99190299	9.575917349999999	-49.97943377	-17.3688927	13.61864816
7.38	-24.72806629	-24.48889345	10.57731626	-54.42908047	-19.10654686	14.11796419
7.39171429	-23.74980372	-27.1979145	11.52569061	-57.85455414	-20.67370071	14.53168664
7.40342857	-22.71147896	-30.2826507	12.47615735	-60.28899529	-22.19814942	14.89283765
7.41514286	-21.55364934	-33.78267475	13.43628091	-61.86918502	-23.7338275	15.21088212
7.42685714	-20.12595573	-37.61897236	14.38153831	-62.77631098	-25.35888394	15.48492624
7.43857143	-18.35008087	-41.75125057	15.31630277	-63.32903921	-26.95519374	15.71198742
7.45028571	-16.23861408	-45.95377809	16.15177285	-63.66151238	-28.53326635	15.86937753
7.462	-13.95234838	-50.04130182	16.83198314	-63.87511824	-30.0363568	15.94314026
7.47371429	-11.66465496	-53.73685286	17.27285165	-63.97481422	-31.44985029	15.9286128
7.48542857	-9.48078493	-56.88529098	17.45980557	-63.93683924	-32.7352246	15.82526878
7.49714286	-7.40854264	-59.38894678	17.41256295	-63.70976459	-33.89479887	15.64949897
7.50885714	-5.50779231	-61.32699856	17.19804007	-63.18578059	-34.98124255	15.41777959
7.52057143	-3.7047861	-62.83219411	16.89180604	-62.39204865	-35.95640132	15.17681327
7.53228571	-2.01388796	-64.01807508	16.52872478	-61.25972948	-36.91705871	14.94687287
7.544	-0.39927398	-64.95520438	16.12629922	-59.78430581	-37.95721548	14.76293823
7.55571429	1.17528101	-65.62971803000001	15.66491794	-58.00987911	-39.12164272	14.65066147
7.56742857	2.73501671	-66.01110595	15.13668449	-55.98867066	-40.49110506	14.64472209
7.57914286	4.26217792	-66.05688129000001	14.53281082	-53.76897193	-42.12143496	14.76230496
7.59085714	5.74001328	-65.81546480999999	13.8685916	-51.38563498	-44.1044021	14.99966763
7.60257143	7.22818921	-65.32354785	13.16699457	-48.94849926	-46.35017396	15.35233423
7.61428571	8.7214604	-64.66335024	12.43473027	-46.47575709	-48.87464236	15.77424356
7.626	10.29627678	-63.87309573	11.67198933	-44.04707318	-51.56890351	16.22142336
7.63771429	12.01220984	-62.96626526	10.87486565	-41.69790385	-54.35185072	16.64939007
7.64942857	13.93428235	-61.97908097	10.05329759	-39.46849392	-57.12172612	17.02237292
7.66114286	16.12716339	-60.92305189	9.21591211	-37.37669784	-59.82408801	17.32327161
7.67285714	18.59118798	-59.8470783	8.37920693	-35.4069699	-62.45108085	17.53941554
7.68457143	21.339039	-58.70584654	7.55471897	-33.59166433	-64.95242428	17.70048038
7.69628571	24.25905196	-57.51044913	6.76104813	-31.89760159	-67.37620828	17.82215679
7.708	27.20466593	-56.23626822	6.02547602	-30.30845334	-69.77445883999999	17.94795882
7.71971429	30.02965119	-54.94002462	5.40070326	-28.84425843	-72.21189773	18.13678466
7.73142857	32.60704914	-53.67219651	4.92884599	-27.52768374	-74.79743877	18.45183442
7.74314286	34.85253865	-52.55188398	4.6491023	-26.38098221	-77.66795969	18.93523076
7.75485714	36.80257668	-51.66934823	4.58010288	-25.43698354	-80.94337118999999	19.59750123
7.76657143	38.67294799	-51.0815518	4.74618183	-24.82675222	-84.59405361	20.4581903
7.77828571	40.69802443	-50.73966076	5.12346206	-24.604089	-88.60027322000001	21.46608426
7.79	43.11944625	-50.48541301	5.66172983	-24.82069475	-92.8598502	22.54760293
7.80171429	46.06566461	-50.07325653	6.27525158	-25.47133057	-97.21237459	23.58963155
7.81342857	49.54378178	-49.18878243	6.86498861	-26.50031953	-101.43493685	24.46727437
7.82514286	53.37638758	-47.53495099	7.32868055	-27.80481054	-105.20508848	25.04757727
7.83685714	57.18949366	-44.84887771	7.56770133	-29.21635099	-108.13910176	25.20150037
7.84857143	60.46904748	-40.94523171	7.524709	-30.58140212	-109.66504753	24.86159607
7.86028571	62.65398285	-35.77193747	7.15238852	-31.66457878	-109.29196414	23.97479878
7.872	63.30437823	-29.44125114	6.43093111	-32.24869953	-106.56413557	22.55868658
7.88371429	62.20386852	-22.2843576	5.37765947	-32.14816675	-101.19679392	20.68769796
7.89542857	59.38276327	-14.91716357	4.06059442	-31.25693269	-93.11628143	18.47117346
7.90714286	55.16045843	-8.168574919999999	2.60750113	-29.56688143	-82.57605008	16.04603765
7.91885714	50.19690774	-2.92686858	1.18978529	-27.27243363	-70.2351084	13.56173134
7.93057143	45.05789831	0.20182849	-0.02475993	-24.48832359	-56.69697959	11.0784207
7.94228571	40.40685997	1.10501295	-0.92832795	-21.51533256	-43.08618023	8.68355549
7.954	36.58688799	0.32788522	-1.54126812	-18.58334338	-30.44872636	6.45080307
7.96571429	33.56600409	-1.37416439	-1.94682737	-15.89343298	-19.60107729	4.45660147
7.97742857	31.19514721	-3.25726063	-2.26899978	-13.6266687	-11.01595869	2.77684481
7.98914286	29.36029952	-4.78902111	-2.63753644	-11.96061038	-4.77981434	1.47003197
8.000857140000001	27.88747011	-5.84929544	-3.05080449	-10.9754326	-0.75577868	0.56166569
8.012571429999999	26.62104297	-6.49842239	-3.46523641	-10.5785216	1.4921305	0.00629577
8.024285709999999	25.59151435	-6.84012083	-3.81089181	-10.7275233	2.40865042	-0.25404104
8.036	24.73158053	-7.08673502	-3.96029599	-11.22336172	2.50122308	-0.32488864
8.04771429	23.90714636	-7.29287521	-3.8725312	-11.76679801	2.17493477	-0.29223049
8.05942857	22.98958383	-7.48830464	-3.55250589	-12.08693492	1.72999776	-0.2269694
8.07114286	21.89323384	-7.64372676	-3.05451738	-12.0006969	1.33915818	-0.16613877
8.08285714	20.5924146	-7.73270495	-2.43967561	-11.42906106	1.09311282	-0.13195135
8.09457143	19.11000557	-7.73280871	-1.76285993	-10.38273489	1.00456889	-0.13197789
8.10628571	17.47717476	-7.6601735	-1.04496784	-8.90039902	1.03688288	-0.1678449
8.118	15.74482875	-7.54591066	-0.29151707	-7.04875038	1.12991303	-0.23524838
8.129714290000001	13.99074888	-7.40307881	0.46626918	-4.93318701	1.25139422	-0.31935634
8.14142857	12.27286209	-7.21946443	1.17232327	-2.64979434	1.37425841	-0.40702613
8.153142860000001	10.62830633	-6.95139448	1.75331689	-0.28978454	1.49717809	-0.48840301
8.164857140000001	9.042282139999999	-6.52573558	2.13597885	2.08218045	1.6075007	-0.5490504899999999
8.176571429999999	7.43484639	-5.89317259	2.2730848	4.43339023	1.70202624	-0.58414364
8.188285710000001	5.67193703	-5.01851305	2.14627816	6.75536584	1.77041466	-0.59144783
8.199999999999999	3.51512623	-4.03961353	1.84058453	9.063772650000001	1.81858109	-0.58040384
8.21171429	0.6600542	-3.15305426	1.47771559	11.41642696	1.83629177	-0.56677193
8.223428569999999	-3.19641138	-2.57122752	1.17987699	13.87694173	1.81766038	-0.56400469
8.23514286	-8.29721198	-2.56956096	1.08018928	16.51755397	1.73963502	-0.58696769
8.246857139999999	-14.67214013	-3.28800881	1.23589517	19.35347998	1.59278894	-0.6401088700000001
8.25857143	-22.02286126	-4.59538086	1.59323477	22.30999135	1.37349734	-0.71292104
8.27028571	-29.80001302	-6.21106948	2.06240907	25.24789936	1.07406897	-0.80147464
8.282	-37.1676607	-7.62190297	2.51963815	27.91844486	0.70435068	-0.88451095
8.29371429	-43.18831002	-8.27538605	2.86485624	30.02972485	0.29066406	-0.93803972
8.30542857	-46.98028352	-7.81962557	3.05270974	31.281857	-0.13003009	-0.9383673
8.317142860000001	-47.91082125	-6.32891711	3.09059767	31.43169795	-0.50414621	-0.88894626
8.32885714	-45.73138086	-4.32553328	3.04355889	30.36007765	-0.79445701	-0.80493124
8.340571430000001	-40.6722712	-2.59840183	2.97774017	28.11976847	-0.95992483	-0.72068672
8.35228571	-33.44019756	-1.87918185	2.95443925	24.93176032	-0.95008848	-0.6626057
8.364000000000001	-25.17800292	-2.51626218	2.97035046	21.18607142	-0.69569708	-0.65509821
8.375714289999999	-17.30107964	-4.32143251	2.9884282	17.37707063	-0.15693439	-0.6763996
